<svg version="1" xmlns="http://www.w3.org/2000/svg" width="933.333" height="933.333" viewBox="0 0 700.000000 700.000000"><path d="M321.5 1.1c-69.6 5.7-136.4 32.3-191 75.9-15.4 12.3-38.6 35.2-50.8 50.1-126.2 154.5-99.4 382.5 59 502.1 51.4 38.7 107 60.7 174.8 69 13 1.6 60 1.6 73 0 57.5-7 106.2-23.9 151.1-52.5C653.9 571.7 716 436.6 696.4 300c-9.1-63.5-35.2-122.7-76.1-172.9-18.8-23-49.2-50.6-73.5-66.9C508 34.3 465.6 16.3 423 7.6c-34-6.9-69.2-9.1-101.5-6.5zm104.9 180.5c19.5 4.8 37.6 22.6 42.6 42.2l1.3 5 15.6 5.7c8.6 3.2 21.9 8.4 29.6 11.7 32 13.7 41.7 20.4 48 33.1 6.7 13.6 6.9 25.9.6 39.3-5.6 11.9-8.8 14.2-58.1 41.8-24.5 13.7-51.8 29.1-60.8 34.1l-16.3 9.2 37.3 39.6 37.3 39.7h21.6c25.8 0 29.8.8 36.4 7.5 5 5 8.1 13.4 7.1 19-.8 4.3-5.5 9-9.7 9.9-1.7.3-18.3.6-36.9.6h-33.7l-45.1-48-45.2-48v-8.7c-.1-21.6-7.3-38.5-23.5-54.9-8-8.1-10.3-9.7-19.5-14.2-13.1-6.3-22.2-8.4-36.5-8.3-13 0-23.3 2.3-34 7.6-7.7 3.9-39.2 26.9-41.9 30.6-2 2.9-2.1 9.1-.1 12.8 1.5 3.1 6.9 6.1 10.7 6.1 3 0 5.8-1.7 22.9-14.6 15.2-11.3 20.6-14.3 30.4-16.9 7.7-2 20.7-1.9 27.6.1 18.6 5.5 33.4 20.7 38.4 39.4 1.9 7.2 1.9 20.1 0 27.5-2.3 8.5-5.4 13.8-20.3 33.8-7.3 9.8-13.2 18-13.2 18.2 0 .3 13.9.5 30.8.5 33.5 0 37.2.5 43.7 5.4 8.3 6.3 11.8 19.7 6.9 26.3-4.1 5.6.2 5.4-129.8 5.1l-120.1-.3-5.9-2.3c-17.8-6.7-29.8-21-32.7-39-2.3-13.9 2.1-51.1 8.6-73.6 13.2-45.6 39.5-86.8 74.8-117.2 22.1-19 52.2-36.5 78.2-45.4 18.5-6.3 27.3-8.4 54.2-12.6 2.8-.4 3.4-1 4.4-4.7 2.2-8.4 7.9-18.6 14.2-25.4 16-17.1 36.9-23.3 60.1-17.7z"/><path d="M404 223.1c-3.2 1.3-7.8 5.6-9.6 9.1-2.3 4.3-1.8 12.5 1 17.2 3.6 6.1 9.2 8.9 16.7 8.4 6.6-.5 10-2.4 13.6-7.8 6.1-8.9 3.1-20.8-6.7-25.8-4.7-2.3-10.7-2.8-15-1.1z"/></svg>